<svg width="56" height="56" fill="none" xmlns="http://www.w3.org/2000/svg"><path d="M56 .1055h-.0922V0H.0658v.1055H0V56h.079v.0791h55.842V56H56V.1055zM52.4309 52.505H3.5691V3.5742H52.431v48.9307z" fill="#7B85A0"/><path d="M10.0486 28.3166l.4742-7.2539H20.598v2.5719h-7.349l-.2371 2.9938.1581.0264c.777-.6858 1.2117-.8045 2.5287-.8045h1.8175c1.3302 0 2.0282.2242 2.5682.765.698.699.9614 1.7936.9614 3.6269 0 2.4268-.2766 3.2708-.9746 4.0094-.4741.5012-1.2117.7782-2.4497.7782h-4.2671c-1.2775 0-2.1468-.2242-2.6341-.6727-.6322-.6594-.9219-1.5694-.9219-3.8116l3.1214-.0263c.0263 1.1342.1843 1.5694.3424 1.7145.158.1715.4346.2374 1.0799.2374h2.1731c.54 0 .7903-.0791.9483-.2242.1844-.1846.3424-.5935.3424-1.8332 0-1.2398-.158-1.6355-.3424-1.8201-.158-.1451-.3951-.2242-.9483-.2242h-1.396c-.9351 0-1.5146.1978-2.3707.7386l-2.6999-.7914zM29.3036 21.0627c1.5409 0 2.2653.1847 2.8711.7386.8166.7386 1.4883 2.1894 1.4883 6.2384 0 4.0226-.6717 5.4865-1.4883 6.2383-.5926.5408-1.3302.7386-2.8711.7386h-3.2399c-1.5409 0-2.2521-.1978-2.8447-.7386-.8298-.7518-1.4883-2.2157-1.4883-6.2383 0-4.049.6585-5.4998 1.4883-6.2384.5926-.5539 1.317-.7386 2.8447-.7386h3.2399zm-2.5287 2.5719c-.7375 0-.9746.0791-1.1326.2242-.2239.1978-.54.7386-.54 4.1941 0 3.4554.3161 3.983.54 4.1676.158.1583.3951.2243 1.1326.2243h1.8175c.7507 0 .9746-.066 1.159-.2243.2239-.1846.54-.7122.54-4.1676 0-3.4555-.3161-3.9831-.54-4.1941-.1844-.1451-.3951-.2242-1.159-.2242h-1.8175zM41.8286 21.0627c1.541 0 2.2653.1847 2.8712.7386.8165.7386 1.4882 2.1894 1.4882 6.2384 0 4.0226-.6717 5.4865-1.4882 6.2383-.5927.5408-1.3302.7386-2.8712.7386h-3.2398c-1.541 0-2.2522-.1978-2.8448-.7386-.8298-.7518-1.4883-2.2157-1.4883-6.2383 0-4.049.6585-5.4998 1.4883-6.2384.5926-.5539 1.317-.7386 2.8448-.7386h3.2398zm-2.5287 2.5719c-.7375 0-.9746.0791-1.1326.2242-.2239.1978-.54.7386-.54 4.1941 0 3.4554.3161 3.983.54 4.1676.158.1583.3951.2243 1.1326.2243h1.8175c.7508 0 .9746-.066 1.1459-.2243.2239-.1846.5399-.7122.5399-4.1676 0-3.4555-.316-3.9831-.5399-4.1941-.1713-.1451-.3951-.2242-1.1459-.2242h-1.8175z" fill="#7B85A0"/></svg>
