<svg width="177" height="32" fill="none" xmlns="http://www.w3.org/2000/svg"><g clip-path="url(#clip0)" fill="#7B85A0"><path d="M23.0046 18.2851a9.2658 9.2658 0 005.1201-1.5415c1.5155-1.005 2.6966-2.4335 3.394-4.1047a9.0805 9.0805 0 00.5236-5.2842c-.3559-1.774-1.234-3.4035-2.5232-4.6822C28.2299 1.3938 26.5875.523 24.7997.1708a9.281 9.281 0 00-5.3246.5222c-1.6837.6928-3.1226 1.8656-4.1347 3.37a9.095 9.095 0 00-1.5508 5.0817c0 1.2007.2383 2.3896.7015 3.4989a9.135 9.135 0 001.9978 2.9659 9.2154 9.2154 0 002.9896 1.9811 9.2715 9.2715 0 003.5261.6945zM23.0619 22.8553h-.0308c-3.0727-.0008-6.0576-1.017-8.4836-2.8884-2.426-1.8713-4.1549-4.4911-4.9138-7.4459-.4627-1.828-1.961-3.3762-3.8605-3.3762H0c0 6.0616 2.4265 11.8749 6.7457 16.1611C11.0648 29.5921 16.9229 32 23.031 32h.0308v-9.1447z"/><path d="M23.0045 22.8553h.0265c3.0728 0 6.0581-1.016 8.4843-2.8874 2.4261-1.8715 4.1548-4.4917 4.913-7.4469.4671-1.828 1.9655-3.3762 3.8649-3.3762h5.7732c-.0011 6.062-2.4286 11.8753-6.7485 16.1614C34.9981 29.5922 29.1396 32 23.031 32h-.0265v-9.1447z"/><path d="M39.3197 25.3044a23.0443 23.0443 0 01-7.4721 4.9549 23.1847 23.1847 0 01-8.814 1.74 23.1852 23.1852 0 01-8.8141-1.74 23.0437 23.0437 0 01-7.472-4.9549l6.5135-6.4638c2.5924 2.571 6.1075 4.0152 9.7726 4.0152 3.665 0 7.1801-1.4442 9.7725-4.0152l6.5136 6.4638z"/><path fill-rule="evenodd" clip-rule="evenodd" d="M160.794 8.6855h2.534v10.706h-2.534V8.6855zm1.278-1.7494a1.641 1.641 0 01-1.154-.4373 1.4288 1.4288 0 01-.352-.49 1.4088 1.4088 0 01-.115-.5902 1.349 1.349 0 01.118-.5734c.081-.1804.2-.3414.349-.4719.154-.1448.335-.258.533-.333.198-.0751.409-.1105.621-.1043.428-.0074.841.1493 1.155.4373.149.1257.269.2826.35.4596.08.177.121.3695.117.5638a1.519 1.519 0 01-.116.6098 1.544 1.544 0 01-.351.5142 1.5695 1.5695 0 01-.536.3175c-.198.069-.409.098-.619.0848v.0131zm-5.01 12.5954a1.641 1.641 0 01-.646-.1173 1.6204 1.6204 0 01-.546-.361 1.596 1.596 0 01-.358-.546 1.6026 1.6026 0 01-.112-.642 1.6171 1.6171 0 01.11-.6488c.08-.2067.202-.3951.357-.5539.159-.1507.346-.2689.551-.3477.205-.0788.424-.1167.644-.1115a1.631 1.631 0 011.192.4754c.155.1556.277.3411.358.5452.081.204.118.4222.111.6413.008.2195-.029.4382-.11.6427a1.596 1.596 0 01-.358.5467 1.6183 1.6183 0 01-.547.3609 1.631 1.631 0 01-.646.116zm11.092-.6998a6.6534 6.6534 0 002.968.6985c1.031 0 2.047-.2392 2.968-.6985a5.1497 5.1497 0 002.05-1.9461 5.4993 5.4993 0 00.749-2.8471 5.3791 5.3791 0 00-.749-2.8252 5.1187 5.1187 0 00-2.063-1.9461 6.6507 6.6507 0 00-2.968-.6985c-1.031 0-2.047.2392-2.968.6985a5.2254 5.2254 0 00-2.067 1.9461 5.4519 5.4519 0 00-.732 2.8252 5.5742 5.5742 0 00.732 2.8471c.5.8259 1.22 1.4992 2.08 1.9461zm5.267-2.366c-.623.5893-1.45.918-2.31.918-.86 0-1.687-.3287-2.309-.918a3.3657 3.3657 0 01-.685-1.1264 3.3309 3.3309 0 01-.196-1.3008 3.3309 3.3309 0 01.196-1.3008c.152-.4165.384-.7993.685-1.1264a3.3451 3.3451 0 012.309-.9231c.861 0 1.689.3308 2.31.9231.308.3232.547.7047.704 1.1216.157.417.227.861.208 1.3056.019.4446-.051.8886-.208 1.3056-.157.417-.396.7984-.704 1.1216zm-71.619 2.3398a2.9501 2.9501 0 01-1.088.5379 4.8411 4.8411 0 01-1.3225.1793 3.8127 3.8127 0 01-2.7368-.9184 3.4942 3.4942 0 01-.767-1.2325 3.4741 3.4741 0 01-.1981-1.4352V6.407h2.512v2.4272h2.8774v1.9942h-2.8774v5.06a1.7097 1.7097 0 00.3834 1.194c.1462.1391.3202.2464.5107.3149a1.465 1.465 0 00.5954.0831 2.2435 2.2435 0 001.4099-.4374l.701 1.7625zm-36.3093.7172a6.3684 6.3684 0 01-2.9968-.6953 5.1797 5.1797 0 01-2.0713-1.9331 5.4222 5.4222 0 01-.7448-2.8296 5.3086 5.3086 0 01.7448-2.8077 5.206 5.206 0 012.0493-1.933 6.4082 6.4082 0 013.0188-.6954 5.8006 5.8006 0 012.7764.6386 4.1085 4.1085 0 011.8025 1.8411l-1.9171 1.1371a2.9693 2.9693 0 00-1.1678-1.1196 3.1057 3.1057 0 00-1.5116-.3761 3.1815 3.1815 0 00-1.2609.2178 3.162 3.162 0 00-1.0705.6963 3.2127 3.2127 0 00-.7169 1.1087 3.1907 3.1907 0 00-.2085 1.301 3.2986 3.2986 0 00.1928 1.3043c.1514.4176.3855.8009.6886 1.1273a3.4613 3.4613 0 001.8568.8776 3.4732 3.4732 0 002.0302-.3266 3.1492 3.1492 0 001.1678-1.1152l1.9171 1.1152a4.3896 4.3896 0 01-1.8289 1.85 5.7669 5.7669 0 01-2.7456.6254l-.0044-.0088zm20.713-.3367a9.859 9.859 0 002.556.3367c1.5028 0 2.6927-.2974 3.5609-.8747a2.782 2.782 0 00.977-1.0216 2.7558 2.7558 0 00.3451-1.3662 2.4114 2.4114 0 00-.6038-1.7494 3.2771 3.2771 0 00-1.4058-.8746 14.9719 14.9719 0 00-2.1154-.4374 11.1087 11.1087 0 01-1.8994-.516.8804.8804 0 01-.4506-.3363.8697.8697 0 01-.1532-.5384.9568.9568 0 01.1511-.5185.9676.9676 0 01.4086-.3562 3.4609 3.4609 0 011.6923-.3367 6.0109 6.0109 0 013.0849.7959l.9696-1.8937a6.2764 6.2764 0 00-1.8113-.656 9.8285 9.8285 0 00-2.2035-.258 5.8865 5.8865 0 00-3.4595.914 2.8189 2.8189 0 00-.9451 1.0433 2.7938 2.7938 0 00-.3197 1.3665 2.5805 2.5805 0 00.5993 1.8149 3.5309 3.5309 0 001.4499.8747 16.1585 16.1585 0 002.1727.4592 9.8419 9.8419 0 011.8333.4155.7975.7975 0 01.425.2905.7873.7873 0 01.1567.4879c0 .7843-.7506 1.175-2.2519 1.1721a7.7754 7.7754 0 01-2.014-.2755 6.4708 6.4708 0 01-1.7276-.7785l-.9651 1.8937a6.4672 6.4672 0 001.9655.9315l-.022-.0087zm19.1833-.3586a6.6 6.6 0 005.897 0 5.131 5.131 0 002.032-1.9331 5.4628 5.4628 0 00.744-2.8296 5.3532 5.3532 0 00-.744-2.8077 5.131 5.131 0 00-2.032-1.933 6.5988 6.5988 0 00-5.897 0 5.2766 5.2766 0 00-2.053 1.933 5.4655 5.4655 0 00-.723 2.8077c-.015.99.234 1.9662.723 2.8296a5.2669 5.2669 0 002.075 1.9418l-.022-.0087zm5.232-2.3529a3.3204 3.3204 0 01-2.294.9185c-.856 0-1.678-.3293-2.294-.9185a3.322 3.322 0 01-.684-1.1173 3.3274 3.3274 0 01-.198-1.2925c-.02-.4394.047-.8786.199-1.2922.151-.4135.383-.7933.683-1.1175.617-.5862 1.439-.9134 2.294-.9134.854 0 1.676.3272 2.294.9134.305.321.543.6998.698 1.1138.155.414.225.8547.205 1.2959.025.4413-.041.8829-.192 1.2985a3.2929 3.2929 0 01-.689 1.12l-.022-.0087zm19.39-7.8459a4.3958 4.3958 0 011.733.2606c.553.2022 1.06.5138 1.489.9159.789.7697 1.185 1.9286 1.185 3.4987v6.0877h-2.516v-5.7772a3.064 3.064 0 00-.573-2.0905 2.2324 2.2324 0 00-.813-.5597 2.2516 2.2516 0 00-.976-.1575 2.618 2.618 0 00-1.11.196 2.5993 2.5993 0 00-.922.6437 3.3007 3.3007 0 00-.78 2.3485v5.3967h-2.516v-5.7772a3.0667 3.0667 0 00-.622-2.0905 2.235 2.235 0 00-.813-.5593 2.2564 2.2564 0 00-.976-.1579 2.6974 2.6974 0 00-1.116.1887c-.354.141-.674.3555-.938.6291a3.4044 3.4044 0 00-.758 2.3704v5.3967h-2.516v-5.9521c0-2.9827 2.278-4.8108 5.253-4.8108a8.0763 8.0763 0 012.794.4592c.619.278 1.138.7355 1.49 1.3121a4.4358 4.4358 0 011.71-1.312 5.5 5.5 0 012.327-.4505l-.036-.0088zm17.814 6.2408c.026-.3177.039-.5627.039-.7347a5.7155 5.7155 0 00-.7-2.8689 4.7712 4.7712 0 00-1.935-1.933 5.5596 5.5596 0 00-2.794-.6954 5.8463 5.8463 0 00-2.86.6954 5.091 5.091 0 00-1.988 1.9549 5.5014 5.5014 0 00-.705 2.7858c-.017.9902.232 1.967.723 2.8296a5.1859 5.1859 0 002.097 1.933 7.342 7.342 0 005.615.258 4.5563 4.5563 0 001.829-1.312l-1.349-1.535a3.9148 3.9148 0 01-1.337.8801 3.9428 3.9428 0 01-1.58.2744 3.8703 3.8703 0 01-2.331-.6778 2.954 2.954 0 01-1.155-1.8544h8.431zm-7.444-3.5249a3.0741 3.0741 0 012.054-.7172 3.0154 3.0154 0 012.049.7172c.552.4804.904 1.1478.987 1.8718h-6.095a2.936 2.936 0 011.005-1.8718zm16.117-2.7071v2.3704a3.313 3.313 0 00-.582-.0613 3.047 3.047 0 00-1.242.1952 3.0244 3.0244 0 00-1.054.6795 3.3353 3.3353 0 00-.824 2.4316v5.1387h-2.517v-5.3617c0-3.888 2.517-5.8779 6.219-5.3924zM77.1713 19.5315c-1.4367 0-2.966-.3936-3.7945-1.1765-.8285-.7828-1.2295-1.9724-1.2295-3.5249V8.7467h2.5164v5.7466a3.1315 3.1315 0 00.6434 2.1517 2.8508 2.8508 0 001.8664.6947 2.851 2.851 0 001.8664-.6947 3.1543 3.1543 0 00.6434-2.1517V8.7467h2.5164v6.0834c0 1.554-.4099 2.729-1.2296 3.5249-.8373.7829-2.3754 1.1765-3.8076 1.1765h.0088z"/></g><defs><clipPath id="clip0"><path fill="#fff" d="M0 0h176.889v32H0z"/></clipPath></defs></svg>
