<svg width="56" height="56" fill="none" xmlns="http://www.w3.org/2000/svg"><path d="M10.535 23.002a7.3943 7.3943 0 011.75 3.486c.693-3.416 3.71-5.985 7.329-5.985 3.619 0 6.636 2.576 7.329 5.992v-5.992l7.476 7.476 7.497-7.476v5.992c.693-3.416 3.71-5.992 7.329-5.992 2.975 0 5.544 1.736 6.748 4.249V0H0v20.503h4.956c2.219 0 4.214.966 5.579 2.499z" fill="#7B85A0"/><path d="M49.252 35.4621c-3.619 0-6.636-2.576-7.329-5.992v5.992h-2.52v-8.946l-4.977 4.998-4.998-4.998v8.946H26.95v-5.992c-.693 3.416-3.71 5.992-7.329 5.992-3.619 0-6.636-2.569-7.329-5.985a7.3943 7.3943 0 01-1.75 3.486c-1.372 1.533-3.36 2.499-5.579 2.499H0v20.538h56v-24.794c-1.204 2.513-3.773 4.256-6.748 4.256z" fill="#7B85A0"/><path d="M49.2525 32.97c2.7564 0 4.991-2.2345 4.991-4.991 0-2.7564-2.2346-4.991-4.991-4.991-2.7565 0-4.991 2.2346-4.991 4.991 0 2.7565 2.2345 4.991 4.991 4.991zM19.6137 32.97c2.7564 0 4.991-2.2345 4.991-4.991 0-2.7564-2.2346-4.991-4.991-4.991-2.7565 0-4.991 2.2346-4.991 4.991 0 2.7565 2.2345 4.991 4.991 4.991zM2.4783 23.002h2.807c2.604.168 4.662 2.331 4.662 4.977 0 2.646-2.058 4.8089-4.662 4.9769h-2.807V23.002z" fill="#7B85A0"/></svg>
