<svg width="203" height="16" fill="none" xmlns="http://www.w3.org/2000/svg"><path fill-rule="evenodd" clip-rule="evenodd" d="M36.9401.6313c0-.2098.1809-.34.3943-.34h.5317l8.8543 9.3063h.0928V.862c0-.2097.0985-.3594.3328-.3594h1.9581c.2129 0 .4987.1497.4987.3594v14.116c0 .2097-.2858.3303-.4987.3303h-.5114l-8.896-9.5177h.0336v8.9571c0 .2097-.225.3486-.4598.3486h-1.9367c-.2128 0-.3937-.1389-.3937-.3486V.6313zm29.0168 9.6005l-2.128-4.6531h-.0638l-2.0863 4.6531h4.2781zm-9.1947 4.3452L63.3818.4907c.0638-.1257.1699-.1994.3612-.1994h.2134c.2128 0 .2981.0857.3618.2114l6.5558 14.0828c.1276.2726-.0429.5115-.3624.5115h-1.8514c-.319 0-.4686-.0526-.617-.3463l-1.0437-2.192h-6.3639l-1.0431 2.192c-.0847.2097-.276.3463-.6164.3463h-1.8515c-.3195 0-.4899-.248-.3624-.5206v.0006zM79.4361 3.041h-3.3515c-.2337 0-.2975-.2492-.2975-.4589V.8627c0-.2097.0638-.36.298-.36h9.3008c.2343 0 .4888.1503.4888.36v1.72c0 .2097-.2551.4588-.4888.4588h-3.1602v11.7069c0 .2097-.2876.3486-.501.3486h-1.979c-.2128 0-.3096-.1389-.3096-.3486V3.041zM93.1716.862c0-.2097.1287-.3594.3421-.3594h2.0219c.2337 0 .4262.1497.4262.3594V9.441c0 1.7828 1.2496 3.188 3.101 3.188 1.8522 0 3.1232-1.4057 3.1232-3.1669v-8.6c0-.2097.118-.3594.352-.3594h2.021c.214 0 .418.1497.418.3594v8.7257c0 3.1886-2.55 5.768-5.9142 5.768-3.3411 0-5.8912-2.58-5.8912-5.768V.8621zM120.2 7.0593c1.128 0 2.107-.8875 2.107-2.0617 0-1.1115-.979-1.9566-2.107-1.9566h-3.419v4.0183h3.419zM113.99.8627c0-.2097.123-.36.357-.36h6.087c2.554 0 4.64 1.9949 4.64 4.4903 0 1.9303-1.299 3.4931-3.15 4.2274l2.915 5.2983c.149.2726 0 .5788-.361.5788h-2.235c-.191 0-.298-.0868-.34-.1708l-2.831-5.54h-2.291v5.3617c0 .2097-.264.3486-.476.3486h-1.958c-.234 0-.357-.1389-.357-.3486V.8627zM133.522.862c0-.2097.082-.3594.316-.3594h8.663c.234 0 .464.1497.464.3594v1.72c0 .2097-.23.4589-.464.4589h-6.404v3.384h5.361c.213 0 .434.1845.434.3943v1.7405c0 .2309-.221.4029-.434.4029h-5.361v3.596h6.404c.234 0 .464.2588.464.4686v1.72c0 .2102-.23.3497-.464.3497h-8.663c-.234 0-.316-.1395-.316-.3492V.8621zm23.066 11.908c1.065 0 1.915-.8543 1.915-1.9451 0-1.0492-1.063-1.8617-2.17-1.8617h-2.423V12.77h2.678zm-.297-6.1337c1.085 0 1.83-.8017 1.83-1.8503 0-1.0491-.745-1.7451-1.83-1.7451h-2.381v3.5954h2.381zM151.335.8627c0-.2097.102-.3594.336-.3594h4.875c2.532 0 4.491 1.6583 4.491 3.8605 0 1.6155-1.342 2.864-2.342 3.3257 1.128.3566 2.767 1.46 2.767 3.3892 0 2.3491-2.043 4.0183-4.64 4.0183h-5.151c-.234 0-.336-.1389-.336-.3486V.8627z" fill="#7B85A0"/><mask id="a" maskUnits="userSpaceOnUse" x="168" y="0" width="16" height="16"><path d="M168.652.2541h15.304v15.1012h-15.304V.2541z" fill="#fff"/></mask><g mask="url(#a)"><path fill-rule="evenodd" clip-rule="evenodd" d="M176.293 12.629c2.682 0 4.896-2.16 4.896-4.8028 0-2.643-2.214-4.8458-4.896-4.8458s-4.874 2.2029-4.874 4.8458c0 2.6428 2.192 4.8028 4.874 4.8028zm0-12.3749c4.257 0 7.663 3.3766 7.663 7.5715 0 4.1954-3.406 7.5297-7.663 7.5297s-7.641-3.3343-7.641-7.5286c0-4.196 3.384-7.5725 7.641-7.5725z" fill="#7B85A0"/></g><path fill-rule="evenodd" clip-rule="evenodd" d="M194.977 7.616l-4.256-6.5452c-.171-.2731 0-.568.361-.568h2.469c.17 0 .276.1137.34.1977l2.724 4.4555h.022l2.767-4.4555a.3961.3961 0 01.34-.1977h2.47c.361 0 .532.2949.361.568l-4.278 6.5549 4.427 6.9137c.171.2937 0 .5577-.362.5577h-2.298c-.171 0-.32-.0411-.363-.1257l-3.043-4.7394h-.063l-3.001 4.74c-.064.084-.192.1251-.363.1251h-2.298c-.383 0-.553-.2903-.383-.5628l4.427-6.9183zM28.0091 15.5548l1.2594.3075s-.2957-.2955-1.1197-.68c-1.169-.4755-3.0929-1.1703-5.7243-1.6726l-.0377-.0074-1.2414-.2286c-1.8753-.2937-3.8224-.5034-5.791-.5034h-.0035l-1.3452.0131a41.86 41.86 0 00-5.791.5006l-1.2426.22-.0348.008c-2.6325.504-4.2004 1.0114-5.5816 1.5845C.516 15.4457 0 15.9428 0 15.9428s.9921-.2971 1.3267-.384c4.3373-1.1257 8.8676-1.5143 13.376-1.5143 4.5013 0 8.9772.5086 13.3064 1.5103zM14.5647 8.2571c.3508 0 .7103-.2806.7103-.6268V1.032c0-.3469-.3595-.6275-.7103-.6275-.3508 0-.7104.2806-.7104.6275v6.5983c0 .3462.3596.6268.7104.6268zm6.2322 2.6366a.639.639 0 00.4494-.1829l4.7362-4.6668a.626.626 0 00.138-.2033.618.618 0 00.0003-.4796.6262.6262 0 00-.1377-.2034.6371.6371 0 00-.2063-.136.644.644 0 00-.4867-.0003.6367.6367 0 00-.2064.1357l-4.7356 4.6663a.6232.6232 0 00-.1749.3208.6174.6174 0 00.0358.3624.629.629 0 00.2342.2816.6427.6427 0 00.3537.1055zm-12.7758-.4252a.634.634 0 00.206.1361.6418.6418 0 00.4866 0 .634.634 0 00.2061-.1361.6185.6185 0 000-.8863L4.1853 4.916a.6412.6412 0 00-.4468-.1735.6408.6408 0 00-.4425.1839.6223.6223 0 00-.186.4363.622.622 0 00.1766.4401l4.7345 4.6663v-.0006zM10.5515 8.58a.6345.6345 0 00.3473.3127.6466.6466 0 00.4703-.007.6338.6338 0 00.3376-.3227.6202.6202 0 00.0213-.463l-1.3046-3.0995a.6321.6321 0 00-.3445-.3396.6454.6454 0 00-.4873 0 .6321.6321 0 00-.3446.3394.619.619 0 00-.0001.4802L10.5515 8.58zm7.2018.3445a.6465.6465 0 00.487-.0007.6335.6335 0 00.3445-.3393l1.4218-3.3885a.6196.6196 0 00-.0001-.4802.6325.6325 0 00-.3447-.3395.6453.6453 0 00-.4873 0 .6325.6325 0 00-.3445.3397L17.4082 8.105c-.1333.32.0203.6863.3451.8194z" fill="#7B85A0"/></svg>
