<svg width="85" height="32" xmlns="http://www.w3.org/2000/svg"><path d="M44.8462 11.2892a1.845 1.845 0 112.6668 2.5503 1.845 1.845 0 01-2.6668-2.5503m10.5711 16.234c-.0493-1.4217-.4696-2.9246-1.5443-3.9164-1.1988-1.1065-2.934-1.6144-4.5468-1.6144h-7.1897c-.71 0-1.3389-.5301-1.3389-1.1844a1.1834 1.1834 0 01.8884-1.1447c-.0016-.0016.1226-.0319.2547-.0748a9.7422 9.7422 0 004.187.893c2.2178 0 4.4387-.6479 6.0657-2.1603 1.5841-1.4726 2.3244-3.5312 2.3244-5.639 0-2.1079-.7403-4.1648-2.3244-5.6374a7.3977 7.3977 0 00-1.5331-1.0938c1.5268.3519 3.1029-.0843 4.187-1.9438l-3.055-2.1827-2.5473 3.528a10.2234 10.2234 0 00-3.1172-.4681c-2.2162 0-4.4386.648-6.0657 2.1604-1.584 1.4726-2.3228 3.5311-2.3228 5.6374 0 2.1063.7387 4.1664 2.3228 5.639.1385.1274.2802.2484.4267.3646-.156.0828-.2978.1576-.2978.1576a8.5333 8.5333 0 00-2.0091 1.5952c-1.0046 1.0635-2.0092 2.6555-2.0092 4.7745 0 0-.14 4.5198 5.0802 4.5198h3.7811c.8709 0 1.7576.5509 1.7576 1.4154 0 .3024-.088.5983-.253.8517h7.2325a6.5751 6.5751 0 001.6462-4.4768m7.7803-16.234c.725-.6948 1.8737-.6785 2.5788.0366.705.7151.705 1.864 0 2.579-.705.7151-1.8537.7315-2.5788.0367-.6793-.7536-.6793-1.8987 0-2.6523m12.8096 16.234c-.0478-1.4217-.4697-2.9246-1.5427-3.9164-1.2004-1.1065-2.9357-1.6144-4.5469-1.6144l-8.3455-.0605c-.527 0-.9281-.328-.9281-.8135 0-.3996.199-.9966.7037-1.0953.998.309 2.0374.4637 3.0822.4585 2.2177 0 4.4401-.648 6.0656-2.1604 1.5841-1.4726 2.3244-3.5312 2.3244-5.639 0-2.1079-.7403-4.1648-2.3244-5.6374a7.3977 7.3977 0 00-1.5331-1.0938c1.5268.3519 3.1029-.0843 4.187-1.9438L70.096 1.8245l-2.5488 3.528a10.2234 10.2234 0 00-3.1172-.4681c-2.2162 0-4.4387.648-6.0657 2.1604-1.5825 1.4726-2.3228 3.5311-2.3228 5.6374 0 2.1063.7403 4.1664 2.3228 5.639a7.413 7.413 0 001.5427 1.097 9.0977 9.0977 0 00-1.1336 1.0204c-1.0061 1.0635-2.0107 2.6555-2.0107 4.7745 0 0-.1385 4.5198 5.0818 4.5198h3.781c.871 0 1.756.5509 1.756 1.4154A1.5602 1.5602 0 0167.13 32h7.231a6.5672 6.5672 0 001.6462-4.4768m8.7514-2.3196v-6.747c-1.5586.1973-2.0999-.8964-2.0999-1.9806V0h-7.7262v17.7067c0 2.1986.3296 4.0326 1.1272 5.1868 1.2243 1.756 2.8832 2.9055 6.1803 2.9198.6082-.027 1.6239-.1464 2.5186-.6097m-56.8645-8.2054c-.8251.9106-2.1822 1.1035-3.2285.459-1.0462-.6446-1.4843-1.9435-1.042-3.09.4422-1.1466 1.639-1.815 2.847-1.59 1.2081.2249 2.0842 1.2791 2.0842 2.508a2.403 2.403 0 01-.6607 1.713m5.7568-9.1701c-1.9948-2.0251-4.7188-2.8912-7.4364-2.8912s-5.4432.866-7.438 2.8912c-1.9423 1.9709-2.8497 4.7267-2.8497 7.5462 0 2.8195.9074 5.577 2.8497 7.5479 1.9933 2.0235 4.7188 2.8911 7.438 2.8911s5.4416-.8676 7.4364-2.8911c1.9423-1.971 2.8498-4.7268 2.8498-7.5479 0-2.821-.9075-5.5753-2.8498-7.5462M13.0468 18.4836c-1.2848 0-1.8102-.3917-2.2846-.9919-.3089-.3916-.4617-.968-.4617-1.7146v-3.493h4.3128V6.0244h-4.3128V0H4.7889v2.2527c0 2.4948-1.912 4.5167-4.2683 4.5167A4.3106 4.3106 0 010 6.7359v5.5483h2.8943v5.5769c0 2.1954.398 3.8862 1.194 5.0388 1.2291 1.7624 2.5919 2.9134 5.9209 2.9134 1.9295 0 3.5438-.441 4.6041-1.0284V18.224a4.4671 4.4671 0 01-1.5665.2595" fill="#7B85A0" fill-rule="evenodd"/></svg>
