<?xml version="1.0" encoding="utf-8"?>
<!-- Generator: Adobe Illustrator 22.0.1, SVG Export Plug-In . SVG Version: 6.00 Build 0)  -->
<svg version="1.1" id="Слой_1" xmlns="http://www.w3.org/2000/svg" xmlns:xlink="http://www.w3.org/1999/xlink" x="0px" y="0px"
	 viewBox="0 0 160 32" style="enable-background:new 0 0 160 32;" xml:space="preserve">
<style type="text/css">
	.st0{fill:#36C86C;}
	.st1{fill:#FFE38D;}
</style>
<desc>Created with Lunacy</desc>
<g id="Group">
	<g id="TM" transform="translate(144.9536 4.551758)">
		<path d="M4.6,5.7H3.8V1.9H2.4V1.3H6v0.7H4.6V5.7z M7.7,5.7H6.9V1.3h1.3l0.9,2.7h0.1L10,1.3h1.3v4.5h-0.8V2h-0.1L9.5,4.8H8.6L7.7,2
			H7.7V5.7z"/>
	</g>
	<path id="Fill-4-Copy" class="st0" d="M28.7,1.4l-10.9,15l10.9,15h2.9l-10.9-15l10.9-15H28.7z"/>
	<path id="Fill-5-Copy" class="st0" d="M21.7,1.4l-10.9,15l10.9,15h2.9l-10.9-15l10.9-15H21.7z"/>
	<path id="Fill-2-Copy" class="st1" d="M6.6,1.4l11.1,15l-11.1,15h3l11.1-15L9.5,1.4H6.6z"/>
	<g id="Xperiencify" transform="translate(37.84766 0)">
		<path d="M49.8,5.6c0,0.9-0.7,1.6-1.6,1.6c-0.9,0-1.6-0.7-1.6-1.6c0-0.8,0.7-1.6,1.6-1.6C49.1,4.1,49.8,4.8,49.8,5.6z M88.8,5.6
			c0,0.9-0.7,1.6-1.6,1.6c-0.9,0-1.6-0.7-1.6-1.6c0-0.8,0.7-1.6,1.6-1.6C88.1,4.1,88.8,4.8,88.8,5.6z M91.9,19.7h2.4v-9h2.2V9.4
			l4,10l-1.9,4.8h2.6l6.2-15.4h-2.6l-2.9,7.7h-0.2l-2.8-7.7h-4.6V7.5c0-1,0.5-1.3,1.2-1.3c0.3,0,0.6,0.1,0.9,0.3l0.8-2
			c-0.6-0.3-1.2-0.5-2-0.5c-1.7,0-3.3,0.9-3.3,3.2v1.5h-2.1v1.9h2.1V19.7z M0.5,19.7h3.1L7.4,14h0.1l3.8,5.7h3.1L9.2,12l5.3-7.7
			h-3.1L7.5,10H7.4L3.6,4.3H0.5L5.8,12L0.5,19.7z M21.7,8.6c-1.2,0-2.3,0.4-3,1h-0.2l-0.2-0.8h-2.2v15.4h2.4v-5.4h0.2
			c0.7,0.7,1.8,1.1,3,1.1c3,0,4.8-2.1,4.8-5.7S24.7,8.6,21.7,8.6z M32.8,8.6c3.8,0,5,3,5,5.4c0,0.4,0,0.8-0.1,1H30
			c0.1,1.7,1.1,2.9,2.9,2.9c1.1,0,1.9-0.3,2.8-1.4l1.6,1.5c-1.2,1.3-2.6,1.9-4.4,1.9c-3.6,0-5.4-2.7-5.4-5.6
			C27.5,11.4,29.2,8.6,32.8,8.6z M39.6,19.7H42v-5.5c0-1.5,0.1-2.3,0.6-2.8c0.4-0.5,1-0.6,1.6-0.6c0.4,0,0.8,0.1,1.4,0.3h0.1V8.6
			c-0.3,0-0.5,0-0.8,0c-1.2,0-2,0.4-2.7,1.1H42l-0.2-0.8h-2.2V19.7z M61.5,14c0-2.4-1.2-5.4-5-5.4c-3.6,0-5.2,2.8-5.2,5.7
			c0,3,1.8,5.6,5.4,5.6c1.8,0,3.2-0.6,4.4-1.9l-1.6-1.5c-0.8,1.1-1.7,1.4-2.8,1.4c-1.8,0-2.8-1.2-2.9-2.9h7.6
			C61.5,14.8,61.5,14.4,61.5,14z M65.8,19.7h-2.4V8.8h2.3l0.1,0.8H66c0.6-0.6,1.7-1.1,3-1.1c1.2,0,2,0.3,2.7,0.8
			c1.1,0.9,1.3,2.3,1.3,3.9v6.4h-2.4v-6c0-1.3-0.1-2.1-0.6-2.6c-0.4-0.4-1-0.6-1.7-0.6c-0.9,0-1.5,0.3-1.9,0.8
			c-0.4,0.6-0.6,1.3-0.6,2.6V19.7z M79.7,19.9c2.3,0,4-1.3,4.6-3.4l-2.2-0.7c-0.3,1.2-1.2,2-2.4,2c-1.9,0-2.7-1.7-2.7-3.6
			c0-1.9,0.8-3.6,2.7-3.6c1.3,0,2.1,0.8,2.4,2l2.2-0.7c-0.7-2.1-2.4-3.3-4.6-3.3c-3.2,0-5.1,2.5-5.1,5.7
			C74.6,17.4,76.5,19.9,79.7,19.9z M49.4,19.7H47V8.8h2.4V19.7z M88.4,19.7H86V8.8h2.4V19.7z M21.2,10.6c1.8,0,2.9,1.3,2.9,3.7
			s-1.1,3.7-2.9,3.7c-1.8,0-2.9-1.3-2.9-3.7C18.3,11.9,19.4,10.6,21.2,10.6z M35.3,12.7c-0.2-1.4-1.2-2.1-2.5-2.1
			c-1.6,0-2.5,1.2-2.7,2.5h5.3C35.4,13,35.4,12.8,35.3,12.7z M56.6,10.6c1.3,0,2.3,0.7,2.5,2.1c0,0.1,0,0.2,0.1,0.4h-5.3
			C54,11.8,55,10.6,56.6,10.6z"/>
	</g>
	<path id="Fill-1-Copy" class="st1" d="M0,1.4l10.9,15L0,31.4h2.9l10.9-15L2.9,1.4H0z"/>
</g>
</svg>
