<svg width="88" height="40" fill="none" xmlns="http://www.w3.org/2000/svg"><path d="M52.4075 17.3956h-2.1769c-.0448-.1782-.0781-.3849-.1003-.6194a7.1089 7.1089 0 010-1.373c.0222-.234.0555-.4405.1003-.6197h5.4253v17.1796a8.1346 8.1346 0 01-.8204.0999 11.418 11.418 0 01-.821.0332 11.0392 11.0392 0 01-.7864-.0332 8.073 8.073 0 01-.8201-.1005V17.3949v.0003l-.0005.0004zm18.8868 4.3203c0-.6253-.0838-1.2224-.2508-1.7921-.1677-.5689-.414-1.0655-.7368-1.49-.3243-.4238-.7371-.7645-1.2395-1.0211-.5021-.2568-1.0995-.3854-1.7916-.3854-1.3617 0-2.4056.4137-3.131 1.2393-.7256.8259-1.1663 1.9756-1.3228 3.4493h8.4727-.0002zm-8.5058 2.4779c.0447 1.8753.5303 3.2486 1.4567 4.1188.9262.8705 2.2938 1.3065 4.1022 1.3065 1.5847 0 3.0917-.2794 4.5205-.8375.1782.3348.3232.7423.435 1.2223.1097.4674.1769.9437.2009 1.4231-.7363.3134-1.5462.5467-2.4275.7034-.8824.1558-1.859.2344-2.9299.2344-1.5633 0-2.9031-.2183-4.0187-.6533-1.1165-.4358-2.0374-1.0497-2.763-1.8419-.7254-.7923-1.2559-1.7301-1.5907-2.8131-.3347-1.0824-.5026-2.2714-.5026-3.5663 0-1.2725.1618-2.4615.4856-3.5668.3232-1.1044.821-2.0646 1.49-2.8795.67-.8152 1.5126-1.4623 2.5285-1.9423 1.0154-.48 2.2152-.7204 3.6-.7204 1.1831 0 2.2212.2013 3.1145.603.8925.4017 1.6407.9544 2.2436 1.6576.6026.7034 1.0603 1.5407 1.373 2.5113.3123.9715.4691 2.0262.4691 3.1651 0 .3126-.0119.6417-.034.9876-.0184.296-.0406.5918-.0668.8873H62.7878l.0003.0005.0004.0002zm15.4393-9.4103a9.3527 9.3527 0 01.7032-.1003 7.2282 7.2282 0 01.7032-.0332c.2456 0 .4909.0114.7368.0332.2454.0227.4688.0563.6699.1003.0663.335.1334.7764.2001 1.3228.0669.5471.101 1.01.101 1.3897.4687-.7588 1.0882-1.4178 1.8582-1.9761.7703-.5577 1.7581-.8372 2.9635-.8372.1785 0 .3626.006.5525.0171.1624.0088.3248.0252.4855.0498.0444.2012.0786.4136.1007.6365.022.2231.0331.4577.0331.7031 0 .2681-.0166.5474-.0499.837-.0322.2799-.0712.559-.117.837a2.3098 2.3098 0 00-.5529-.0669h-.4524c-.6026 0-1.1776.0839-1.7245.251-.5475.1677-1.0383.4636-1.4736.8874-.4349.4244-.7813 1.005-1.0375 1.7418-.2573.7368-.3853 1.6856-.3853 2.8463v8.5397a8.1379 8.1379 0 01-.8207.1003c-.3009.0224-.5746.0332-.82.0332a11.2953 11.2953 0 01-.8207-.0332 9.7607 9.7607 0 01-.8541-.1001v-17.179l.0009-.0002zM54.7249 5.6104c0 .4008-.0723.7984-.2136 1.1734a3.3333 3.3333 0 01-1.1738.2138h-.0049a3.329 3.329 0 01-1.1738-.2136 3.3261 3.3261 0 01-.214-1.1738V5.605c0-.4131.0758-.8088.2131-1.1738a3.3222 3.3222 0 011.1742-.2136h.0045c.4133 0 .8087.0758 1.1738.2136.1414.3752.2138.7728.2136 1.1738v.0052h.0005l.0004.0002zm4.0919-.9293h-3.2447l2.2941-2.2943a5.583 5.583 0 00-1.3104-1.31L54.2613 3.371V.1262a5.585 5.585 0 00-.9233-.0774h-.0059c-.3148 0-.6231.027-.9235.0774v3.2449l-2.2951-2.2945a5.5527 5.5527 0 00-.7091.6002l-.0011.001a5.5948 5.5948 0 00-.5996.7092l2.295 2.2941h-3.2454s-.0772.6097-.0772.9248v.0038c0 .3151.0267.624.0774.9245h3.2454l-2.2954 2.294c.361.5066.8039.9495 1.3106 1.3104l2.2946-2.2941v3.245c.3001.0503.6079.0769.9223.0772h.0079a5.609 5.609 0 00.9222-.0772v-3.245l2.2949 2.2946c.2528-.18.4901-.3808.7097-.6001h.0005a5.615 5.615 0 00.5995-.7097l-2.2942-2.2949h3.2454a5.5802 5.5802 0 00.0769-.9226v-.008c0-.3092-.0259-.6175-.0769-.9223V4.681h-.0001zM0 31.4944l9.0418-14.0653H1.0714c-.0667-.4018-.1-.8479-.1-1.3392 0-.4687.0338-.9045.1007-1.3066h12.8926l.1677.4362-9.1086 14.0981h8.539c.0669.4467.1006.904.1006 1.3726 0 .4472-.0335.8711-.1004 1.2729H.1677L0 31.4939v.0005zm26.0866-7.6023c-.3348-.0441-.7591-.0883-1.2725-.1336-.5135-.0442-.9488-.0669-1.3055-.0669-1.3844 0-2.4393.2568-3.1643.7703-.7261.5139-1.0882 1.2949-1.0882 2.3441 0 .6697.1222 1.1944.368 1.5738.2452.3801.5525.6697.9209.8708.3685.2008.7755.3238 1.2218.3685.4463.0446.8708.0668 1.2725.0668.5135 0 1.0437-.028 1.5907-.0839.5468-.0554 1.0324-.1394 1.4568-.251v-5.4589h-.0002zm0-3.2478c0-1.3177-.3348-2.233-1.0043-2.7466-.6701-.5135-1.6411-.7703-2.9136-.7703-.782 0-1.5126.0619-2.1933.1845a16.7953 16.7953 0 00-1.993.485c-.4245-.7367-.6359-1.6179-.6359-2.6455.7581-.2453 1.5952-.435 2.511-.5689.9153-.1342 1.797-.2013 2.6457-.2013 2.2323 0 3.9289.5083 5.09 1.524 1.1605 1.0166 1.7415 2.6406 1.7415 4.8727v10.7497c-.7819.1785-1.7303.3626-2.8465.5525a20.394 20.394 0 01-3.4157.2847c-1.0938 0-2.0821-.1001-2.9635-.3011-.8821-.2014-1.63-.5244-2.2438-.9716-.6145-.4461-1.0883-1.0155-1.4236-1.7074-.3347-.6922-.5022-1.5292-.5022-2.5118 0-.9596.1953-1.8026.586-2.5285a5.2804 5.2804 0 011.5909-1.8082c.6697-.4793 1.4399-.8371 2.3106-1.0711.8709-.2346 1.7858-.352 2.7459-.352.7144 0 1.3004.0171 1.7582.0507.4573.0331.8426.0723 1.1553.117v-.6363l.0003-.0002zm10.1799 8.5051a6.571 6.571 0 001.3063.3351c.4464.0672 1.0263.1006 1.7414.1006.8035 0 1.5399-.1281 2.2096-.3848.6701-.2563 1.2448-.653 1.7248-1.189.48-.5356.8593-1.2105 1.1385-2.0262.2789-.8144.4188-1.7796.4188-2.8964 0-1.7859-.3297-3.2035-.9879-4.253-.659-1.0491-1.7363-1.5738-3.2314-1.5738-.5581 0-1.0944.1003-1.607.3015-.5143.2009-.9716.5024-1.3735.9041-.4017.4018-.7254.9101-.9708 1.5239-.2463.6145-.3686 1.3449-.3686 2.1935V29.15v-.0004l-.0002-.0002zm-3.3152-14.3662a7.0184 7.0184 0 01.6864-.1003 7.801 7.801 0 01.7202-.0332c.2225 0 .4568.0115.7029.0332.2452.0227.4796.0564.7032.1004.022.0454.0503.1843.0839.4189.0331.2346.0667.4856.1004.7532.0335.2681.0669.5254.1004.7703.0336.2459.0503.4023.0503.4692.2227-.3569.4909-.7033.8035-1.0381.3127-.335.687-.6364 1.1223-.904.4353-.2681.9261-.48 1.4734-.6365.5467-.1561 1.1551-.2349 1.8249-.2349 1.0044 0 1.9366.1677 2.7965.5027.8591.3354 1.5953.8536 2.2097 1.557.6136.7034 1.0934 1.5965 1.4398 2.679.3458 1.0837.5188 2.3616.5188 3.8348 0 2.9467-.7983 5.2524-2.3948 6.9152-1.5965 1.6634-3.8562 2.4947-6.7808 2.4947-.4913 0-.9933-.0335-1.5069-.1004-.5139-.0673-.96-.1567-1.3397-.2678v7.8697a9.748 9.748 0 01-.8535.1004c-.3016.0219-.5753.0332-.8209.0332a11.3389 11.3389 0 01-.8203-.0332 8.1051 8.1051 0 01-.8203-.1004v-25.083l.0006-.0001z" fill="#7B85A0"/></svg>
